<svg xmlns="http://www.w3.org/2000/svg" xml:space="preserve" width="225mm" height="31mm" style="shape-rendering:geometricPrecision;text-rendering:geometricPrecision;image-rendering:optimizeQuality;fill-rule:evenodd;clip-rule:evenodd" viewBox="0 0 22500 3100"><path d="M457 904c217-4 434-6 653-9V551c-349 1-698 3-1045 4v2480c128-10 260-20 392-30V1993c170-8 340-15 512-22v-346c-172 6-342 12-512 18V904zm968 2034c130-8 262-15 394-22V548c-132 1-264 1-394 1v2389zm808-45c349-18 698-34 1047-49v-328c-217 8-434 16-651 25V547h-396v2346zM4124 545h-551v2287c114-3 231-7 347-12V1211c49 268 98 535 148 802 49 266 98 532 147 797 123-3 249-7 374-10 45-271 89-541 134-811 45-269 92-539 139-809v1612c123-3 248-6 373-9V545h-550c-45 267-89 534-134 801s-90 535-134 804c-50-267-101-534-148-801s-99-536-145-804zm1888 511c0-158 80-219 205-219 126 0 206 60 206 218v1196c0 158-80 219-206 221-125 2-205-57-205-216V1056zm-396 1183c0 357 214 556 604 550 389-7 599-211 599-564V1076c0-353-214-556-604-556-389 0-599 204-599 560v1159zM7488 546h-400c67 367 132 735 197 1102 64 367 129 734 194 1100 197-2 394-3 591-4 63-367 130-733 192-1099 63-366 130-732 193-1097-121-1-242-1-363-1-49 299-100 598-150 896-49 299-100 598-150 897-51-298-102-597-152-896-49-299-100-598-152-898zm2063 2h-580c-64 365-132 730-199 1096-67 365-134 731-201 1097 121-1 242-1 365-2 22-132 44-265 67-398 161 0 324 0 487-1 23 133 45 266 68 398 132-1 266-1 400-1-69-365-136-729-204-1094-67-365-134-730-203-1095zm-307 388c32 185 63 369 94 554 32 185 63 369 97 553-128 1-255 1-381 1 32-185 63-369 94-554 32-184 63-369 96-554zm52-851c-83 116-163 231-244 347h266c121-115 244-231 367-347h-389zm1528 2652c208 0 416-1 626-1 396 0 589-190 589-540v-553c0-184-3-369-3-554 0-349-194-540-590-540h-624c2 364 2 729 2 1094v1094zm615-1875c128 0 201 56 201 212 0 190 3 380 3 569v568c0 157-74 213-202 213h-221V862h219zm1848-313h-579c-68 364-134 729-200 1094-66 364-134 729-201 1094h365c22-132 44-265 67-397 161 0 324 0 488 1 22 132 44 265 67 397 132 0 266 1 400 1-67-365-133-730-201-1095-69-365-137-730-206-1095zm-309 388c32 184 64 369 96 554 33 184 63 368 97 553-128-1-255-1-381-1 32-184 64-368 94-553 30-184 61-369 94-553zm770-75h414c0 314 2 627 2 940v939l396 3v-940c0-314-2-627-2-941h414c0-104 0-209-3-314h-1223c2 104 2 209 2 313zm2259-312c-194 0-387-1-579-1-65 367-131 734-197 1101-66 366-134 732-201 1098 121 1 241 2 362 3 22-132 45-266 69-399 162 2 323 4 486 6 22 134 45 268 69 402 132 1 264 4 399 6-68-370-134-740-202-1110-68-369-136-738-206-1106zm-306 390c31 186 64 373 96 559s63 372 96 559c-127-1-255-3-382-4 31-185 63-371 94-556 30-186 62-372 96-558zm1613-390h-595c2 370 3 741 4 1111s0 740 0 1111c206 4 414 8 622 13 396 10 602-171 602-518v-183c0-238-83-410-295-486 176-72 254-219 252-450 0-27 1-53 0-80-2-347-181-518-590-518zm-18 1228c179 3 255 68 255 276v195c0 167-72 220-206 217-76-1-152-3-226-5v-685c58 1 117 2 177 2zm11-909c141 1 201 71 201 231v125c2 179-87 236-234 234-52 0-103-1-155-1-2-196-2-393-2-589h190zm1873-318h-580c-62 378-128 756-194 1132s-135 751-202 1126c121 3 242 8 365 12 22-137 45-273 67-411 161 5 322 10 485 16 23 139 45 278 70 418 132 5 264 11 398 17-67-388-133-774-201-1159s-137-768-208-1151zm-305 404c32 193 64 385 97 578 32 193 62 387 96 580-128-3-255-6-381-9 32-191 64-382 94-574 31-191 61-383 94-575zm50-887c-83 122-164 242-244 362h266c121-121 244-242 367-365-130 1-260 2-389 3zm941 484c3 111 3 221 5 331 237 2 476 4 716 6-125 281-248 559-374 836-125 276-250 550-376 823v325c385 18 772 39 1159 61v-340c-253-12-503-25-754-36 126-275 251-551 376-829 126-279 248-560 376-843-2-111-2-222-4-333-376-1-750-1-1124-1zm1882 348c228 3 456 6 684 8-2-118-2-236-4-355-360 1-720 0-1081 0 5 401 6 802 7 1202 1 401 0 802 0 1202 360 24 721 51 1081 78v-355c-228-14-457-29-685-44v-712c181 8 363 16 544 23v-352c-181-6-363-12-544-18-2-225-2-450-2-677z" style="fill:#e50914;fill-rule:nonzero"/></svg>